<svg xmlns="http://www.w3.org/2000/svg" viewBox="0 0 920 1131" width="920" height="1131" font-family="Helvetica, Arial, sans-serif">
  <defs>
    <marker id="arrow" viewBox="0 0 10 10" refX="9" refY="5"
            markerWidth="8" markerHeight="8" orient="auto-start-reverse">
      <path d="M0,0 L10,5 L0,10 z" fill="#1B2631"/>
    </marker>
    <marker id="arrow_dashed" viewBox="0 0 10 10" refX="9" refY="5"
            markerWidth="8" markerHeight="8" orient="auto-start-reverse">
      <path d="M0,0 L10,5 L0,10 z" fill="#5D6D7E"/>
    </marker>
  </defs>
  <text x="460.0" y="40.0" text-anchor="middle" font-size="20" font-weight="bold" fill="#0B3D91">Paper B — PRISMA-Style Study Flow (Multi-Method XAI)</text>
  <text x="460.0" y="74" text-anchor="middle" font-size="12" fill="#566573">Explainable AI for Micro-TESE Sperm Retrieval Prediction</text>
  <rect x="54.0" y="88.0" width="16.0" height="16.0" rx="3" ry="3" fill="#D6EAF8" stroke="#1B2631" stroke-width="1.2"/>
  <text x="78.0" y="101.0" font-size="12" fill="#1B2631">Data / cohort</text>
  <rect x="185.8" y="88.0" width="16.0" height="16.0" rx="3" ry="3" fill="#D5F5E3" stroke="#1B2631" stroke-width="1.2"/>
  <text x="209.8" y="101.0" font-size="12" fill="#1B2631">Modelling</text>
  <rect x="291.2" y="88.0" width="16.0" height="16.0" rx="3" ry="3" fill="#FDEBD0" stroke="#1B2631" stroke-width="1.2"/>
  <text x="315.2" y="101.0" font-size="12" fill="#1B2631">XAI</text>
  <rect x="357.0" y="88.0" width="16.0" height="16.0" rx="3" ry="3" fill="#E8DAEF" stroke="#1B2631" stroke-width="1.2"/>
  <text x="381.0" y="101.0" font-size="12" fill="#1B2631">CDSS</text>
  <rect x="200.0" y="120.0" width="520.0" height="89.0" rx="10" ry="10" fill="#D6EAF8" stroke="#1B2631" stroke-width="1.8"/>
  <text x="460.0" y="149.0" text-anchor="middle" font-size="16" font-weight="bold" fill="#1B2631">
    <tspan x="460.0" dy="0">Identification</tspan>
  </text>
  <text x="460.0" y="172.0" text-anchor="middle" font-size="14" font-weight="normal" fill="#1B2631">
    <tspan x="460.0" dy="0">Royan Institute NOA cohort: n = 2,450 records screened</tspan>
    <tspan x="460.0" dy="17">(2007–2022)</tspan>
  </text>
  <line x1="460.0" y1="213.0" x2="460.0" y2="267.0" stroke="#1B2631" stroke-width="1.8" marker-end="url(#arrow)"/>
  <rect x="726.0" y="203.0" width="170.0" height="140.0" rx="10" ry="10" fill="#FCF3CF" stroke="#7D6608" stroke-width="1.8"/>
  <text x="811.0" y="232.0" text-anchor="middle" font-size="16" font-weight="bold" fill="#1B2631">
    <tspan x="811.0" dy="0">Exclusion</tspan>
  </text>
  <text x="811.0" y="255.0" text-anchor="middle" font-size="14" font-weight="normal" fill="#1B2631">
    <tspan x="811.0" dy="0">Excluded: 37</tspan>
    <tspan x="811.0" dy="17">records with</tspan>
    <tspan x="811.0" dy="17">missing Outcome1</tspan>
    <tspan x="811.0" dy="17">or non-NOA</tspan>
    <tspan x="811.0" dy="17">aetiology</tspan>
  </text>
  <line x1="460.0" y1="239.0" x2="722.0" y2="239.0" stroke="#5D6D7E" stroke-width="1.5" stroke-dasharray="5,4"/>
  <rect x="200.0" y="269.0" width="520.0" height="89.0" rx="10" ry="10" fill="#D6EAF8" stroke="#1B2631" stroke-width="1.8"/>
  <text x="460.0" y="298.0" text-anchor="middle" font-size="16" font-weight="bold" fill="#1B2631">
    <tspan x="460.0" dy="0">Analytical sample</tspan>
  </text>
  <text x="460.0" y="321.0" text-anchor="middle" font-size="14" font-weight="normal" fill="#1B2631">
    <tspan x="460.0" dy="0">n = 2,413 analytical sample (886 successful, 36.7 %; 1,527</tspan>
    <tspan x="460.0" dy="17">failures, 63.3 %)</tspan>
  </text>
  <path d="M 460.0,360.0 L 460.0,388.0 L 322.0,388.0 L 322.0,414.0" fill="none" stroke="#1B2631" stroke-width="1.8" marker-end="url(#arrow)"/>
  <path d="M 460.0,360.0 L 460.0,388.0 L 598.0,388.0 L 598.0,414.0" fill="none" stroke="#1B2631" stroke-width="1.8" marker-end="url(#arrow)"/>
  <rect x="200.0" y="416.0" width="244.0" height="72.0" rx="10" ry="10" fill="#D6EAF8" stroke="#1B2631" stroke-width="1.8"/>
  <text x="322.0" y="445.0" text-anchor="middle" font-size="16" font-weight="bold" fill="#1B2631">
    <tspan x="322.0" dy="0">Primary 80 / 20 split</tspan>
  </text>
  <text x="322.0" y="468.0" text-anchor="middle" font-size="14" font-weight="normal" fill="#1B2631">
    <tspan x="322.0" dy="0">Train = 1,930 • Test = 483</tspan>
  </text>
  <rect x="476.0" y="416.0" width="244.0" height="72.0" rx="10" ry="10" fill="#D6EAF8" stroke="#1B2631" stroke-width="1.8"/>
  <text x="598.0" y="445.0" text-anchor="middle" font-size="16" font-weight="bold" fill="#1B2631">
    <tspan x="598.0" dy="0">Calibration / DCA split</tspan>
  </text>
  <text x="598.0" y="468.0" text-anchor="middle" font-size="14" font-weight="normal" fill="#1B2631">
    <tspan x="598.0" dy="0">Train = 1,689 • Test = 724</tspan>
  </text>
  <line x1="322.0" y1="490.0" x2="322.0" y2="524.0" stroke="#1B2631" stroke-width="1.8" marker-end="url(#arrow)"/>
  <line x1="598.0" y1="490.0" x2="598.0" y2="524.0" stroke="#1B2631" stroke-width="1.8" marker-end="url(#arrow)"/>
  <rect x="200.0" y="526.0" width="244.0" height="89.0" rx="10" ry="10" fill="#D5F5E3" stroke="#1B2631" stroke-width="1.8"/>
  <text x="322.0" y="555.0" text-anchor="middle" font-size="16" font-weight="bold" fill="#1B2631">
    <tspan x="322.0" dy="0">Model benchmarking</tspan>
  </text>
  <text x="322.0" y="578.0" text-anchor="middle" font-size="14" font-weight="normal" fill="#1B2631">
    <tspan x="322.0" dy="0">16-model nested-CV benchmark</tspan>
    <tspan x="322.0" dy="17">→ v2 leaderboard</tspan>
  </text>
  <rect x="476.0" y="526.0" width="244.0" height="106.0" rx="10" ry="10" fill="#D5F5E3" stroke="#1B2631" stroke-width="1.8"/>
  <text x="598.0" y="555.0" text-anchor="middle" font-size="16" font-weight="bold" fill="#1B2631">
    <tspan x="598.0" dy="0">Calibration &amp; utility</tspan>
  </text>
  <text x="598.0" y="578.0" text-anchor="middle" font-size="14" font-weight="normal" fill="#1B2631">
    <tspan x="598.0" dy="0">Reliability diagrams, Brier</tspan>
    <tspan x="598.0" dy="17">scoring, decision-curve</tspan>
    <tspan x="598.0" dy="17">analysis</tspan>
  </text>
  <path d="M 322.0,634.0 L 322.0,664.0 L 460.0,664.0 L 460.0,690.0" fill="none" stroke="#1B2631" stroke-width="1.8" marker-end="url(#arrow)"/>
  <path d="M 598.0,634.0 L 598.0,664.0 L 460.0,664.0 L 460.0,690.0" fill="none" stroke="#1B2631" stroke-width="1.8" marker-end="url(#arrow)"/>
  <rect x="200.0" y="692.0" width="520.0" height="72.0" rx="10" ry="10" fill="#D5F5E3" stroke="#1B2631" stroke-width="1.8"/>
  <text x="460.0" y="721.0" text-anchor="middle" font-size="16" font-weight="bold" fill="#1B2631">
    <tspan x="460.0" dy="0">Selected model</tspan>
  </text>
  <text x="460.0" y="744.0" text-anchor="middle" font-size="14" font-weight="normal" fill="#1B2631">
    <tspan x="460.0" dy="0">CatBoost champion model: AUC = 0.8306 (95 % CI 0.823 – 0.845)</tspan>
  </text>
  <line x1="460.0" y1="768.0" x2="460.0" y2="796.0" stroke="#1B2631" stroke-width="1.8" marker-end="url(#arrow)"/>
  <path d="M 460.0,800.0 L 460.0,820.0 L 280.7,820.0 L 280.7,844.0" fill="none" stroke="#1B2631" stroke-width="1.8" marker-end="url(#arrow)"/>
  <path d="M 460.0,800.0 L 460.0,820.0 L 460.0,820.0 L 460.0,844.0" fill="none" stroke="#1B2631" stroke-width="1.8" marker-end="url(#arrow)"/>
  <path d="M 460.0,800.0 L 460.0,820.0 L 639.3,820.0 L 639.3,844.0" fill="none" stroke="#1B2631" stroke-width="1.8" marker-end="url(#arrow)"/>
  <rect x="200.0" y="844.0" width="161.3" height="106.0" rx="10" ry="10" fill="#FDEBD0" stroke="#1B2631" stroke-width="1.8"/>
  <text x="280.7" y="873.0" text-anchor="middle" font-size="16" font-weight="bold" fill="#1B2631">
    <tspan x="280.7" dy="0">Global &amp; local</tspan>
    <tspan x="280.7" dy="17">TreeSHAP</tspan>
  </text>
  <text x="280.7" y="913.0" text-anchor="middle" font-size="14" font-weight="normal" fill="#1B2631">
    <tspan x="280.7" dy="0">Feature</tspan>
    <tspan x="280.7" dy="17">attribution</tspan>
  </text>
  <rect x="379.3" y="844.0" width="161.3" height="89.0" rx="10" ry="10" fill="#FDEBD0" stroke="#1B2631" stroke-width="1.8"/>
  <text x="460.0" y="873.0" text-anchor="middle" font-size="16" font-weight="bold" fill="#1B2631">
    <tspan x="460.0" dy="0">LIME</tspan>
  </text>
  <text x="460.0" y="896.0" text-anchor="middle" font-size="14" font-weight="normal" fill="#1B2631">
    <tspan x="460.0" dy="0">Local surrogate</tspan>
    <tspan x="460.0" dy="17">explanation</tspan>
  </text>
  <rect x="558.7" y="844.0" width="161.3" height="106.0" rx="10" ry="10" fill="#FDEBD0" stroke="#1B2631" stroke-width="1.8"/>
  <text x="639.3" y="873.0" text-anchor="middle" font-size="16" font-weight="bold" fill="#1B2631">
    <tspan x="639.3" dy="0">Partial-dependence</tspan>
    <tspan x="639.3" dy="17">plots</tspan>
  </text>
  <text x="639.3" y="913.0" text-anchor="middle" font-size="14" font-weight="normal" fill="#1B2631">
    <tspan x="639.3" dy="0">Marginal effect</tspan>
    <tspan x="639.3" dy="17">curves</tspan>
  </text>
  <path d="M 280.7,952.0 L 280.7,980.0 L 460.0,980.0 L 460.0,1006.0" fill="none" stroke="#1B2631" stroke-width="1.8" marker-end="url(#arrow)"/>
  <path d="M 460.0,952.0 L 460.0,980.0 L 460.0,980.0 L 460.0,1006.0" fill="none" stroke="#1B2631" stroke-width="1.8" marker-end="url(#arrow)"/>
  <path d="M 639.3,952.0 L 639.3,980.0 L 460.0,980.0 L 460.0,1006.0" fill="none" stroke="#1B2631" stroke-width="1.8" marker-end="url(#arrow)"/>
  <rect x="200.0" y="1006.0" width="520.0" height="89.0" rx="10" ry="10" fill="#E8DAEF" stroke="#1B2631" stroke-width="1.8"/>
  <text x="460.0" y="1035.0" text-anchor="middle" font-size="16" font-weight="bold" fill="#1B2631">
    <tspan x="460.0" dy="0">Clinical decision support system</tspan>
  </text>
  <text x="460.0" y="1058.0" text-anchor="middle" font-size="14" font-weight="normal" fill="#1B2631">
    <tspan x="460.0" dy="0">11-feature CDSS specification with clinical-workflow</tspan>
    <tspan x="460.0" dy="17">integration</tspan>
  </text>
</svg>
