<?xml version="1.0" encoding="utf-8" standalone="no"?>
<!DOCTYPE svg PUBLIC "-//W3C//DTD SVG 1.1//EN"
  "http://www.w3.org/Graphics/SVG/1.1/DTD/svg11.dtd">
<svg xmlns:xlink="http://www.w3.org/1999/xlink" width="864pt" height="1826.64pt" viewBox="0 0 864 1826.64" xmlns="http://www.w3.org/2000/svg" version="1.1">
 <metadata>
  <rdf:RDF xmlns:dc="http://purl.org/dc/elements/1.1/" xmlns:cc="http://creativecommons.org/ns#" xmlns:rdf="http://www.w3.org/1999/02/22-rdf-syntax-ns#">
   <cc:Work>
    <dc:type rdf:resource="http://purl.org/dc/dcmitype/StillImage"/>
    <dc:date>2026-05-16T16:02:53.033870</dc:date>
    <dc:format>image/svg+xml</dc:format>
    <dc:creator>
     <cc:Agent>
      <dc:title>Matplotlib v3.9.2, https://matplotlib.org/</dc:title>
     </cc:Agent>
    </dc:creator>
   </cc:Work>
  </rdf:RDF>
 </metadata>
 <defs>
  <style type="text/css">*{stroke-linejoin: round; stroke-linecap: butt}</style>
 </defs>
 <g id="figure_1">
  <g id="patch_1">
   <path d="M 0 1826.64 
L 864 1826.64 
L 864 0 
L 0 0 
z
" style="fill: #ffffff"/>
  </g>
  <g id="axes_1">
   <g id="patch_2">
    <path d="M 124.56 187.2 
L 746.64 187.2 
Q 752.4 187.2 752.4 181.44 
L 752.4 131.76 
Q 752.4 126 746.64 126 
L 124.56 126 
Q 118.8 126 118.8 131.76 
L 118.8 181.44 
Q 118.8 187.2 124.56 187.2 
z
" clip-path="url(#pd2c99b92e6)" style="opacity: 0.1"/>
   </g>
   <g id="patch_3">
    <path d="M 124.56 278.64 
L 746.64 278.64 
Q 752.4 278.64 752.4 272.88 
L 752.4 223.2 
Q 752.4 217.44 746.64 217.44 
L 124.56 217.44 
Q 118.8 217.44 118.8 223.2 
L 118.8 272.88 
Q 118.8 278.64 124.56 278.64 
z
" clip-path="url(#pd2c99b92e6)" style="opacity: 0.1"/>
   </g>
   <g id="patch_4">
    <path d="M 124.56 370.08 
L 746.64 370.08 
Q 752.4 370.08 752.4 364.32 
L 752.4 314.64 
Q 752.4 308.88 746.64 308.88 
L 124.56 308.88 
Q 118.8 308.88 118.8 314.64 
L 118.8 364.32 
Q 118.8 370.08 124.56 370.08 
z
" clip-path="url(#pd2c99b92e6)" style="opacity: 0.1"/>
   </g>
   <g id="patch_5">
    <path d="M 124.56 461.52 
L 746.64 461.52 
Q 752.4 461.52 752.4 455.76 
L 752.4 406.08 
Q 752.4 400.32 746.64 400.32 
L 124.56 400.32 
Q 118.8 400.32 118.8 406.08 
L 118.8 455.76 
Q 118.8 461.52 124.56 461.52 
z
" clip-path="url(#pd2c99b92e6)" style="opacity: 0.1"/>
   </g>
   <g id="patch_6">
    <path d="M 124.56 552.96 
L 746.64 552.96 
Q 752.4 552.96 752.4 547.2 
L 752.4 497.52 
Q 752.4 491.76 746.64 491.76 
L 124.56 491.76 
Q 118.8 491.76 118.8 497.52 
L 118.8 547.2 
Q 118.8 552.96 124.56 552.96 
z
" clip-path="url(#pd2c99b92e6)" style="opacity: 0.1"/>
   </g>
   <g id="patch_7">
    <path d="M 124.56 644.4 
L 746.64 644.4 
Q 752.4 644.4 752.4 638.64 
L 752.4 588.96 
Q 752.4 583.2 746.64 583.2 
L 124.56 583.2 
Q 118.8 583.2 118.8 588.96 
L 118.8 638.64 
Q 118.8 644.4 124.56 644.4 
z
" clip-path="url(#pd2c99b92e6)" style="opacity: 0.1"/>
   </g>
   <g id="patch_8">
    <path d="M 124.56 735.84 
L 746.64 735.84 
Q 752.4 735.84 752.4 730.08 
L 752.4 680.4 
Q 752.4 674.64 746.64 674.64 
L 124.56 674.64 
Q 118.8 674.64 118.8 680.4 
L 118.8 730.08 
Q 118.8 735.84 124.56 735.84 
z
" clip-path="url(#pd2c99b92e6)" style="opacity: 0.1"/>
   </g>
   <g id="patch_9">
    <path d="M 92.16 814.68 
L 411.84 814.68 
Q 417.6 814.68 417.6 808.92 
L 417.6 744.84 
Q 417.6 739.08 411.84 739.08 
L 92.16 739.08 
Q 86.4 739.08 86.4 744.84 
L 86.4 808.92 
Q 86.4 814.68 92.16 814.68 
z
" clip-path="url(#pd2c99b92e6)" style="opacity: 0.1"/>
   </g>
   <g id="patch_10">
    <path d="M 459.36 814.68 
L 779.04 814.68 
Q 784.8 814.68 784.8 808.92 
L 784.8 744.84 
Q 784.8 739.08 779.04 739.08 
L 459.36 739.08 
Q 453.6 739.08 453.6 744.84 
L 453.6 808.92 
Q 453.6 814.68 459.36 814.68 
z
" clip-path="url(#pd2c99b92e6)" style="opacity: 0.1"/>
   </g>
   <g id="patch_11">
    <path d="M 124.56 913.32 
L 746.64 913.32 
Q 752.4 913.32 752.4 907.56 
L 752.4 857.88 
Q 752.4 852.12 746.64 852.12 
L 124.56 852.12 
Q 118.8 852.12 118.8 857.88 
L 118.8 907.56 
Q 118.8 913.32 124.56 913.32 
z
" clip-path="url(#pd2c99b92e6)" style="opacity: 0.1"/>
   </g>
   <g id="patch_12">
    <path d="M 124.56 1004.76 
L 746.64 1004.76 
Q 752.4 1004.76 752.4 999 
L 752.4 949.32 
Q 752.4 943.56 746.64 943.56 
L 124.56 943.56 
Q 118.8 943.56 118.8 949.32 
L 118.8 999 
Q 118.8 1004.76 124.56 1004.76 
z
" clip-path="url(#pd2c99b92e6)" style="opacity: 0.1"/>
   </g>
   <g id="patch_13">
    <path d="M 124.56 1096.2 
L 746.64 1096.2 
Q 752.4 1096.2 752.4 1090.44 
L 752.4 1040.76 
Q 752.4 1035 746.64 1035 
L 124.56 1035 
Q 118.8 1035 118.8 1040.76 
L 118.8 1090.44 
Q 118.8 1096.2 124.56 1096.2 
z
" clip-path="url(#pd2c99b92e6)" style="opacity: 0.1"/>
   </g>
   <g id="patch_14">
    <path d="M 124.56 1187.64 
L 746.64 1187.64 
Q 752.4 1187.64 752.4 1181.88 
L 752.4 1132.2 
Q 752.4 1126.44 746.64 1126.44 
L 124.56 1126.44 
Q 118.8 1126.44 118.8 1132.2 
L 118.8 1181.88 
Q 118.8 1187.64 124.56 1187.64 
z
" clip-path="url(#pd2c99b92e6)" style="opacity: 0.1"/>
   </g>
   <g id="patch_15">
    <path d="M 124.56 1279.08 
L 746.64 1279.08 
Q 752.4 1279.08 752.4 1273.32 
L 752.4 1223.64 
Q 752.4 1217.88 746.64 1217.88 
L 124.56 1217.88 
Q 118.8 1217.88 118.8 1223.64 
L 118.8 1273.32 
Q 118.8 1279.08 124.56 1279.08 
z
" clip-path="url(#pd2c99b92e6)" style="opacity: 0.1"/>
   </g>
   <g id="patch_16">
    <path d="M 124.56 1370.52 
L 746.64 1370.52 
Q 752.4 1370.52 752.4 1364.76 
L 752.4 1315.08 
Q 752.4 1309.32 746.64 1309.32 
L 124.56 1309.32 
Q 118.8 1309.32 118.8 1315.08 
L 118.8 1364.76 
Q 118.8 1370.52 124.56 1370.52 
z
" clip-path="url(#pd2c99b92e6)" style="opacity: 0.1"/>
   </g>
   <g id="patch_17">
    <path d="M 124.56 1461.96 
L 746.64 1461.96 
Q 752.4 1461.96 752.4 1456.2 
L 752.4 1406.52 
Q 752.4 1400.76 746.64 1400.76 
L 124.56 1400.76 
Q 118.8 1400.76 118.8 1406.52 
L 118.8 1456.2 
Q 118.8 1461.96 124.56 1461.96 
z
" clip-path="url(#pd2c99b92e6)" style="opacity: 0.1"/>
   </g>
   <g id="patch_18">
    <path d="M 124.56 1553.4 
L 746.64 1553.4 
Q 752.4 1553.4 752.4 1547.64 
L 752.4 1497.96 
Q 752.4 1492.2 746.64 1492.2 
L 124.56 1492.2 
Q 118.8 1492.2 118.8 1497.96 
L 118.8 1547.64 
Q 118.8 1553.4 124.56 1553.4 
z
" clip-path="url(#pd2c99b92e6)" style="opacity: 0.1"/>
   </g>
   <g id="patch_19">
    <path d="M 97.92 1705.32 
L 774.72 1705.32 
Q 781.92 1705.32 781.92 1698.12 
L 781.92 1600.92 
Q 781.92 1593.72 774.72 1593.72 
L 97.92 1593.72 
Q 90.72 1593.72 90.72 1600.92 
L 90.72 1698.12 
Q 90.72 1705.32 97.92 1705.32 
z
" clip-path="url(#pd2c99b92e6)" style="opacity: 0.15"/>
   </g>
   <g id="patch_20">
    <path d="M 56.16 1801.8 
L 807.84 1801.8 
Q 813.6 1801.8 813.6 1796.04 
L 813.6 1731.96 
Q 813.6 1726.2 807.84 1726.2 
L 56.16 1726.2 
Q 50.4 1726.2 50.4 1731.96 
L 50.4 1796.04 
Q 50.4 1801.8 56.16 1801.8 
z
" clip-path="url(#pd2c99b92e6)" style="fill: #fafafa; stroke: #bbbbbb; stroke-linejoin: miter"/>
   </g>
   <g id="patch_21">
    <path d="M 432 183.6 
Q 432 198.72 432 212.162949 
" clip-path="url(#pd2c99b92e6)" style="fill: none; stroke: #444444; stroke-width: 1.5; stroke-linecap: round"/>
    <path d="M 434.8 206.562949 
L 432 212.162949 
L 429.2 206.562949 
z
" clip-path="url(#pd2c99b92e6)" style="fill: #444444; stroke: #444444; stroke-width: 1.5; stroke-linecap: round"/>
   </g>
   <g id="patch_22">
    <path d="M 432 275.04 
Q 432 290.16 432 303.602949 
" clip-path="url(#pd2c99b92e6)" style="fill: none; stroke: #444444; stroke-width: 1.5; stroke-linecap: round"/>
    <path d="M 434.8 298.002949 
L 432 303.602949 
L 429.2 298.002949 
z
" clip-path="url(#pd2c99b92e6)" style="fill: #444444; stroke: #444444; stroke-width: 1.5; stroke-linecap: round"/>
   </g>
   <g id="patch_23">
    <path d="M 432 366.48 
Q 432 381.6 432 395.042949 
" clip-path="url(#pd2c99b92e6)" style="fill: none; stroke: #444444; stroke-width: 1.5; stroke-linecap: round"/>
    <path d="M 434.8 389.442949 
L 432 395.042949 
L 429.2 389.442949 
z
" clip-path="url(#pd2c99b92e6)" style="fill: #444444; stroke: #444444; stroke-width: 1.5; stroke-linecap: round"/>
   </g>
   <g id="patch_24">
    <path d="M 432 457.92 
Q 432 473.04 432 486.482949 
" clip-path="url(#pd2c99b92e6)" style="fill: none; stroke: #444444; stroke-width: 1.5; stroke-linecap: round"/>
    <path d="M 434.8 480.882949 
L 432 486.482949 
L 429.2 480.882949 
z
" clip-path="url(#pd2c99b92e6)" style="fill: #444444; stroke: #444444; stroke-width: 1.5; stroke-linecap: round"/>
   </g>
   <g id="patch_25">
    <path d="M 432 549.36 
Q 432 564.48 432 577.922949 
" clip-path="url(#pd2c99b92e6)" style="fill: none; stroke: #444444; stroke-width: 1.5; stroke-linecap: round"/>
    <path d="M 434.8 572.322949 
L 432 577.922949 
L 429.2 572.322949 
z
" clip-path="url(#pd2c99b92e6)" style="fill: #444444; stroke: #444444; stroke-width: 1.5; stroke-linecap: round"/>
   </g>
   <g id="patch_26">
    <path d="M 432 640.8 
Q 432 655.92 432 669.362949 
" clip-path="url(#pd2c99b92e6)" style="fill: none; stroke: #444444; stroke-width: 1.5; stroke-linecap: round"/>
    <path d="M 434.8 663.762949 
L 432 669.362949 
L 429.2 663.762949 
z
" clip-path="url(#pd2c99b92e6)" style="fill: #444444; stroke: #444444; stroke-width: 1.5; stroke-linecap: round"/>
   </g>
   <g id="patch_27">
    <path d="M 428.4 732.24 
Q 338.4 733.86 250.076779 735.449818 
" clip-path="url(#pd2c99b92e6)" style="fill: none; stroke: #444444; stroke-width: 1.5; stroke-linecap: round"/>
    <path d="M 255.726264 738.148581 
L 250.076779 735.449818 
L 255.625481 732.549488 
z
" clip-path="url(#pd2c99b92e6)" style="fill: #444444; stroke: #444444; stroke-width: 1.5; stroke-linecap: round"/>
   </g>
   <g id="patch_28">
    <path d="M 435.6 732.24 
Q 525.6 733.86 613.923221 735.449818 
" clip-path="url(#pd2c99b92e6)" style="fill: none; stroke: #444444; stroke-width: 1.5; stroke-linecap: round"/>
    <path d="M 608.374519 732.549488 
L 613.923221 735.449818 
L 608.273736 738.148581 
z
" clip-path="url(#pd2c99b92e6)" style="fill: #444444; stroke: #444444; stroke-width: 1.5; stroke-linecap: round"/>
   </g>
   <g id="patch_29">
    <path d="M 248.4 811.08 
Q 338.4 829.8 426.758091 848.178483 
" clip-path="url(#pd2c99b92e6)" style="fill: none; stroke: #444444; stroke-width: 1.5; stroke-linecap: round"/>
    <path d="M 421.845632 844.296763 
L 426.758091 848.178483 
L 420.70524 849.779418 
z
" clip-path="url(#pd2c99b92e6)" style="fill: #444444; stroke: #444444; stroke-width: 1.5; stroke-linecap: round"/>
   </g>
   <g id="patch_30">
    <path d="M 615.6 811.08 
Q 525.6 829.8 437.241909 848.178483 
" clip-path="url(#pd2c99b92e6)" style="fill: none; stroke: #444444; stroke-width: 1.5; stroke-linecap: round"/>
    <path d="M 443.29476 849.779418 
L 437.241909 848.178483 
L 442.154368 844.296763 
z
" clip-path="url(#pd2c99b92e6)" style="fill: #444444; stroke: #444444; stroke-width: 1.5; stroke-linecap: round"/>
   </g>
   <g id="patch_31">
    <path d="M 432 909.72 
Q 432 924.84 432 938.282949 
" clip-path="url(#pd2c99b92e6)" style="fill: none; stroke: #444444; stroke-width: 1.5; stroke-linecap: round"/>
    <path d="M 434.8 932.682949 
L 432 938.282949 
L 429.2 932.682949 
z
" clip-path="url(#pd2c99b92e6)" style="fill: #444444; stroke: #444444; stroke-width: 1.5; stroke-linecap: round"/>
   </g>
   <g id="patch_32">
    <path d="M 432 1001.16 
Q 432 1016.28 432 1029.722949 
" clip-path="url(#pd2c99b92e6)" style="fill: none; stroke: #444444; stroke-width: 1.5; stroke-linecap: round"/>
    <path d="M 434.8 1024.122949 
L 432 1029.722949 
L 429.2 1024.122949 
z
" clip-path="url(#pd2c99b92e6)" style="fill: #444444; stroke: #444444; stroke-width: 1.5; stroke-linecap: round"/>
   </g>
   <g id="patch_33">
    <path d="M 432 1092.6 
Q 432 1107.72 432 1121.162949 
" clip-path="url(#pd2c99b92e6)" style="fill: none; stroke: #444444; stroke-width: 1.5; stroke-linecap: round"/>
    <path d="M 434.8 1115.562949 
L 432 1121.162949 
L 429.2 1115.562949 
z
" clip-path="url(#pd2c99b92e6)" style="fill: #444444; stroke: #444444; stroke-width: 1.5; stroke-linecap: round"/>
   </g>
   <g id="patch_34">
    <path d="M 432 1184.04 
Q 432 1199.16 432 1212.602949 
" clip-path="url(#pd2c99b92e6)" style="fill: none; stroke: #444444; stroke-width: 1.5; stroke-linecap: round"/>
    <path d="M 434.8 1207.002949 
L 432 1212.602949 
L 429.2 1207.002949 
z
" clip-path="url(#pd2c99b92e6)" style="fill: #444444; stroke: #444444; stroke-width: 1.5; stroke-linecap: round"/>
   </g>
   <g id="patch_35">
    <path d="M 432 1275.48 
Q 432 1290.6 432 1304.042949 
" clip-path="url(#pd2c99b92e6)" style="fill: none; stroke: #444444; stroke-width: 1.5; stroke-linecap: round"/>
    <path d="M 434.8 1298.442949 
L 432 1304.042949 
L 429.2 1298.442949 
z
" clip-path="url(#pd2c99b92e6)" style="fill: #444444; stroke: #444444; stroke-width: 1.5; stroke-linecap: round"/>
   </g>
   <g id="patch_36">
    <path d="M 432 1366.92 
Q 432 1382.04 432 1395.482949 
" clip-path="url(#pd2c99b92e6)" style="fill: none; stroke: #444444; stroke-width: 1.5; stroke-linecap: round"/>
    <path d="M 434.8 1389.882949 
L 432 1395.482949 
L 429.2 1389.882949 
z
" clip-path="url(#pd2c99b92e6)" style="fill: #444444; stroke: #444444; stroke-width: 1.5; stroke-linecap: round"/>
   </g>
   <g id="patch_37">
    <path d="M 432 1458.36 
Q 432 1473.48 432 1486.922949 
" clip-path="url(#pd2c99b92e6)" style="fill: none; stroke: #444444; stroke-width: 1.5; stroke-linecap: round"/>
    <path d="M 434.8 1481.322949 
L 432 1486.922949 
L 429.2 1481.322949 
z
" clip-path="url(#pd2c99b92e6)" style="fill: #444444; stroke: #444444; stroke-width: 1.5; stroke-linecap: round"/>
   </g>
   <g id="patch_38">
    <path d="M 432 1549.8 
Q 432 1569.6 432 1587.387539 
" clip-path="url(#pd2c99b92e6)" style="fill: none; stroke: #5a4500; stroke-width: 1.8; stroke-linecap: round"/>
    <path d="M 434.8 1581.787539 
L 432 1587.387539 
L 429.2 1581.787539 
z
" clip-path="url(#pd2c99b92e6)" style="fill: #5a4500; stroke: #5a4500; stroke-width: 1.8; stroke-linecap: round"/>
   </g>
   <g id="patch_39">
    <path d="M 120.96 183.6 
L 743.04 183.6 
Q 748.8 183.6 748.8 177.84 
L 748.8 128.16 
Q 748.8 122.4 743.04 122.4 
L 120.96 122.4 
Q 115.2 122.4 115.2 128.16 
L 115.2 177.84 
Q 115.2 183.6 120.96 183.6 
z
" clip-path="url(#pd2c99b92e6)" style="fill: #ffffff; stroke: #4472c4; stroke-width: 1.4; stroke-linejoin: miter"/>
   </g>
   <g id="patch_40">
    <path d="M 120.96 275.04 
L 743.04 275.04 
Q 748.8 275.04 748.8 269.28 
L 748.8 219.6 
Q 748.8 213.84 743.04 213.84 
L 120.96 213.84 
Q 115.2 213.84 115.2 219.6 
L 115.2 269.28 
Q 115.2 275.04 120.96 275.04 
z
" clip-path="url(#pd2c99b92e6)" style="fill: #ffffff; stroke: #4472c4; stroke-width: 1.4; stroke-linejoin: miter"/>
   </g>
   <g id="patch_41">
    <path d="M 120.96 366.48 
L 743.04 366.48 
Q 748.8 366.48 748.8 360.72 
L 748.8 311.04 
Q 748.8 305.28 743.04 305.28 
L 120.96 305.28 
Q 115.2 305.28 115.2 311.04 
L 115.2 360.72 
Q 115.2 366.48 120.96 366.48 
z
" clip-path="url(#pd2c99b92e6)" style="fill: #ffffff; stroke: #ed7d31; stroke-width: 1.4; stroke-linejoin: miter"/>
   </g>
   <g id="patch_42">
    <path d="M 120.96 457.92 
L 743.04 457.92 
Q 748.8 457.92 748.8 452.16 
L 748.8 402.48 
Q 748.8 396.72 743.04 396.72 
L 120.96 396.72 
Q 115.2 396.72 115.2 402.48 
L 115.2 452.16 
Q 115.2 457.92 120.96 457.92 
z
" clip-path="url(#pd2c99b92e6)" style="fill: #ffffff; stroke: #c00000; stroke-width: 1.4; stroke-linejoin: miter"/>
   </g>
   <g id="patch_43">
    <path d="M 120.96 549.36 
L 743.04 549.36 
Q 748.8 549.36 748.8 543.6 
L 748.8 493.92 
Q 748.8 488.16 743.04 488.16 
L 120.96 488.16 
Q 115.2 488.16 115.2 493.92 
L 115.2 543.6 
Q 115.2 549.36 120.96 549.36 
z
" clip-path="url(#pd2c99b92e6)" style="fill: #ffffff; stroke: #ed7d31; stroke-width: 1.4; stroke-linejoin: miter"/>
   </g>
   <g id="patch_44">
    <path d="M 120.96 640.8 
L 743.04 640.8 
Q 748.8 640.8 748.8 635.04 
L 748.8 585.36 
Q 748.8 579.6 743.04 579.6 
L 120.96 579.6 
Q 115.2 579.6 115.2 585.36 
L 115.2 635.04 
Q 115.2 640.8 120.96 640.8 
z
" clip-path="url(#pd2c99b92e6)" style="fill: #ffffff; stroke: #c00000; stroke-width: 1.4; stroke-linejoin: miter"/>
   </g>
   <g id="patch_45">
    <path d="M 120.96 732.24 
L 743.04 732.24 
Q 748.8 732.24 748.8 726.48 
L 748.8 676.8 
Q 748.8 671.04 743.04 671.04 
L 120.96 671.04 
Q 115.2 671.04 115.2 676.8 
L 115.2 726.48 
Q 115.2 732.24 120.96 732.24 
z
" clip-path="url(#pd2c99b92e6)" style="fill: #ffffff; stroke: #808080; stroke-width: 1.4; stroke-linejoin: miter"/>
   </g>
   <g id="patch_46">
    <path d="M 88.56 811.08 
L 408.24 811.08 
Q 414 811.08 414 805.32 
L 414 741.24 
Q 414 735.48 408.24 735.48 
L 88.56 735.48 
Q 82.8 735.48 82.8 741.24 
L 82.8 805.32 
Q 82.8 811.08 88.56 811.08 
z
" clip-path="url(#pd2c99b92e6)" style="fill: #ffffff; stroke: #808080; stroke-width: 1.4; stroke-linejoin: miter"/>
   </g>
   <g id="patch_47">
    <path d="M 455.76 811.08 
L 775.44 811.08 
Q 781.2 811.08 781.2 805.32 
L 781.2 741.24 
Q 781.2 735.48 775.44 735.48 
L 455.76 735.48 
Q 450 735.48 450 741.24 
L 450 805.32 
Q 450 811.08 455.76 811.08 
z
" clip-path="url(#pd2c99b92e6)" style="fill: #ffffff; stroke: #808080; stroke-width: 1.4; stroke-linejoin: miter"/>
   </g>
   <g id="patch_48">
    <path d="M 120.96 909.72 
L 743.04 909.72 
Q 748.8 909.72 748.8 903.96 
L 748.8 854.28 
Q 748.8 848.52 743.04 848.52 
L 120.96 848.52 
Q 115.2 848.52 115.2 854.28 
L 115.2 903.96 
Q 115.2 909.72 120.96 909.72 
z
" clip-path="url(#pd2c99b92e6)" style="fill: #ffffff; stroke: #548235; stroke-width: 1.4; stroke-linejoin: miter"/>
   </g>
   <g id="patch_49">
    <path d="M 120.96 1001.16 
L 743.04 1001.16 
Q 748.8 1001.16 748.8 995.4 
L 748.8 945.72 
Q 748.8 939.96 743.04 939.96 
L 120.96 939.96 
Q 115.2 939.96 115.2 945.72 
L 115.2 995.4 
Q 115.2 1001.16 120.96 1001.16 
z
" clip-path="url(#pd2c99b92e6)" style="fill: #ffffff; stroke: #548235; stroke-width: 1.4; stroke-linejoin: miter"/>
   </g>
   <g id="patch_50">
    <path d="M 120.96 1092.6 
L 743.04 1092.6 
Q 748.8 1092.6 748.8 1086.84 
L 748.8 1037.16 
Q 748.8 1031.4 743.04 1031.4 
L 120.96 1031.4 
Q 115.2 1031.4 115.2 1037.16 
L 115.2 1086.84 
Q 115.2 1092.6 120.96 1092.6 
z
" clip-path="url(#pd2c99b92e6)" style="fill: #ffffff; stroke: #7030a0; stroke-width: 1.4; stroke-linejoin: miter"/>
   </g>
   <g id="patch_51">
    <path d="M 120.96 1184.04 
L 743.04 1184.04 
Q 748.8 1184.04 748.8 1178.28 
L 748.8 1128.6 
Q 748.8 1122.84 743.04 1122.84 
L 120.96 1122.84 
Q 115.2 1122.84 115.2 1128.6 
L 115.2 1178.28 
Q 115.2 1184.04 120.96 1184.04 
z
" clip-path="url(#pd2c99b92e6)" style="fill: #ffffff; stroke: #bf8f00; stroke-width: 1.4; stroke-linejoin: miter"/>
   </g>
   <g id="patch_52">
    <path d="M 120.96 1275.48 
L 743.04 1275.48 
Q 748.8 1275.48 748.8 1269.72 
L 748.8 1220.04 
Q 748.8 1214.28 743.04 1214.28 
L 120.96 1214.28 
Q 115.2 1214.28 115.2 1220.04 
L 115.2 1269.72 
Q 115.2 1275.48 120.96 1275.48 
z
" clip-path="url(#pd2c99b92e6)" style="fill: #ffffff; stroke: #2e8b8b; stroke-width: 1.4; stroke-linejoin: miter"/>
   </g>
   <g id="patch_53">
    <path d="M 120.96 1366.92 
L 743.04 1366.92 
Q 748.8 1366.92 748.8 1361.16 
L 748.8 1311.48 
Q 748.8 1305.72 743.04 1305.72 
L 120.96 1305.72 
Q 115.2 1305.72 115.2 1311.48 
L 115.2 1361.16 
Q 115.2 1366.92 120.96 1366.92 
z
" clip-path="url(#pd2c99b92e6)" style="fill: #ffffff; stroke: #2e8b8b; stroke-width: 1.4; stroke-linejoin: miter"/>
   </g>
   <g id="patch_54">
    <path d="M 120.96 1458.36 
L 743.04 1458.36 
Q 748.8 1458.36 748.8 1452.6 
L 748.8 1402.92 
Q 748.8 1397.16 743.04 1397.16 
L 120.96 1397.16 
Q 115.2 1397.16 115.2 1402.92 
L 115.2 1452.6 
Q 115.2 1458.36 120.96 1458.36 
z
" clip-path="url(#pd2c99b92e6)" style="fill: #ffffff; stroke: #2e8b8b; stroke-width: 1.4; stroke-linejoin: miter"/>
   </g>
   <g id="patch_55">
    <path d="M 120.96 1549.8 
L 743.04 1549.8 
Q 748.8 1549.8 748.8 1544.04 
L 748.8 1494.36 
Q 748.8 1488.6 743.04 1488.6 
L 120.96 1488.6 
Q 115.2 1488.6 115.2 1494.36 
L 115.2 1544.04 
Q 115.2 1549.8 120.96 1549.8 
z
" clip-path="url(#pd2c99b92e6)" style="fill: #ffffff; stroke: #808080; stroke-width: 1.4; stroke-linejoin: miter"/>
   </g>
   <g id="patch_56">
    <path d="M 93.6 1701 
L 770.4 1701 
Q 777.6 1701 777.6 1693.8 
L 777.6 1596.6 
Q 777.6 1589.4 770.4 1589.4 
L 93.6 1589.4 
Q 86.4 1589.4 86.4 1596.6 
L 86.4 1693.8 
Q 86.4 1701 93.6 1701 
z
" clip-path="url(#pd2c99b92e6)" style="fill: #fffbf0; stroke: #bf8f00; stroke-width: 2.2; stroke-linejoin: miter"/>
   </g>
   <g id="text_1">
    <text style="fill: #1a1a1a; font: 700 10.5px 'DejaVu Sans'; text-anchor: start" x="64.8" y="1743.456328" transform="rotate(-0 64.8 1743.456328)">Legend — Step Categories</text>
   </g>
   <g id="patch_57">
    <path d="M 128.16 183.6 
L 748.8 183.6 
L 748.8 122.4 
L 128.16 122.4 
z
" clip-path="url(#pd2c99b92e6)" style="fill: #4472c4; opacity: 0.05"/>
   </g>
   <g id="patch_58">
    <path d="M 128.16 275.04 
L 748.8 275.04 
L 748.8 213.84 
L 128.16 213.84 
z
" clip-path="url(#pd2c99b92e6)" style="fill: #4472c4; opacity: 0.05"/>
   </g>
   <g id="patch_59">
    <path d="M 128.16 366.48 
L 748.8 366.48 
L 748.8 305.28 
L 128.16 305.28 
z
" clip-path="url(#pd2c99b92e6)" style="fill: #ed7d31; opacity: 0.05"/>
   </g>
   <g id="patch_60">
    <path d="M 128.16 457.92 
L 748.8 457.92 
L 748.8 396.72 
L 128.16 396.72 
z
" clip-path="url(#pd2c99b92e6)" style="fill: #c00000; opacity: 0.05"/>
   </g>
   <g id="patch_61">
    <path d="M 128.16 549.36 
L 748.8 549.36 
L 748.8 488.16 
L 128.16 488.16 
z
" clip-path="url(#pd2c99b92e6)" style="fill: #ed7d31; opacity: 0.05"/>
   </g>
   <g id="patch_62">
    <path d="M 128.16 640.8 
L 748.8 640.8 
L 748.8 579.6 
L 128.16 579.6 
z
" clip-path="url(#pd2c99b92e6)" style="fill: #c00000; opacity: 0.05"/>
   </g>
   <g id="patch_63">
    <path d="M 128.16 732.24 
L 748.8 732.24 
L 748.8 671.04 
L 128.16 671.04 
z
" clip-path="url(#pd2c99b92e6)" style="fill: #808080; opacity: 0.05"/>
   </g>
   <g id="patch_64">
    <path d="M 95.76 811.08 
L 414 811.08 
L 414 735.48 
L 95.76 735.48 
z
" clip-path="url(#pd2c99b92e6)" style="fill: #808080; opacity: 0.05"/>
   </g>
   <g id="patch_65">
    <path d="M 462.96 811.08 
L 781.2 811.08 
L 781.2 735.48 
L 462.96 735.48 
z
" clip-path="url(#pd2c99b92e6)" style="fill: #808080; opacity: 0.05"/>
   </g>
   <g id="patch_66">
    <path d="M 128.16 909.72 
L 748.8 909.72 
L 748.8 848.52 
L 128.16 848.52 
z
" clip-path="url(#pd2c99b92e6)" style="fill: #548235; opacity: 0.05"/>
   </g>
   <g id="patch_67">
    <path d="M 128.16 1001.16 
L 748.8 1001.16 
L 748.8 939.96 
L 128.16 939.96 
z
" clip-path="url(#pd2c99b92e6)" style="fill: #548235; opacity: 0.05"/>
   </g>
   <g id="patch_68">
    <path d="M 128.16 1092.6 
L 748.8 1092.6 
L 748.8 1031.4 
L 128.16 1031.4 
z
" clip-path="url(#pd2c99b92e6)" style="fill: #7030a0; opacity: 0.05"/>
   </g>
   <g id="patch_69">
    <path d="M 128.16 1184.04 
L 748.8 1184.04 
L 748.8 1122.84 
L 128.16 1122.84 
z
" clip-path="url(#pd2c99b92e6)" style="fill: #bf8f00; opacity: 0.05"/>
   </g>
   <g id="patch_70">
    <path d="M 128.16 1275.48 
L 748.8 1275.48 
L 748.8 1214.28 
L 128.16 1214.28 
z
" clip-path="url(#pd2c99b92e6)" style="fill: #2e8b8b; opacity: 0.05"/>
   </g>
   <g id="patch_71">
    <path d="M 128.16 1366.92 
L 748.8 1366.92 
L 748.8 1305.72 
L 128.16 1305.72 
z
" clip-path="url(#pd2c99b92e6)" style="fill: #2e8b8b; opacity: 0.05"/>
   </g>
   <g id="patch_72">
    <path d="M 128.16 1458.36 
L 748.8 1458.36 
L 748.8 1397.16 
L 128.16 1397.16 
z
" clip-path="url(#pd2c99b92e6)" style="fill: #2e8b8b; opacity: 0.05"/>
   </g>
   <g id="patch_73">
    <path d="M 128.16 1549.8 
L 748.8 1549.8 
L 748.8 1488.6 
L 128.16 1488.6 
z
" clip-path="url(#pd2c99b92e6)" style="fill: #808080; opacity: 0.05"/>
   </g>
   <g id="text_2">
    <text style="fill: #1a1a1a; font: 700 18px 'DejaVu Sans'; text-anchor: middle" x="432" y="57.096563" transform="rotate(-0 432 57.096563)">NOA Micro-TESE ML Prediction — Royan Institute Cohort (n = 2,413)</text>
   </g>
   <g id="text_3">
    <text style="fill: #555555; font: italic 11px 'DejaVu Sans'; text-anchor: middle" x="432" y="85.475313" transform="rotate(-0 432 85.475313)">End-to-end data preprocessing and modeling pipeline</text>
   </g>
   <g id="patch_74">
    <path d="M 115.2 183.6 
L 128.16 183.6 
L 128.16 122.4 
L 115.2 122.4 
z
" clip-path="url(#pd2c99b92e6)" style="fill: #4472c4"/>
   </g>
   <g id="patch_75">
    <path d="M 115.2 275.04 
L 128.16 275.04 
L 128.16 213.84 
L 115.2 213.84 
z
" clip-path="url(#pd2c99b92e6)" style="fill: #4472c4"/>
   </g>
   <g id="patch_76">
    <path d="M 115.2 366.48 
L 128.16 366.48 
L 128.16 305.28 
L 115.2 305.28 
z
" clip-path="url(#pd2c99b92e6)" style="fill: #ed7d31"/>
   </g>
   <g id="patch_77">
    <path d="M 115.2 457.92 
L 128.16 457.92 
L 128.16 396.72 
L 115.2 396.72 
z
" clip-path="url(#pd2c99b92e6)" style="fill: #c00000"/>
   </g>
   <g id="patch_78">
    <path d="M 115.2 549.36 
L 128.16 549.36 
L 128.16 488.16 
L 115.2 488.16 
z
" clip-path="url(#pd2c99b92e6)" style="fill: #ed7d31"/>
   </g>
   <g id="patch_79">
    <path d="M 115.2 640.8 
L 128.16 640.8 
L 128.16 579.6 
L 115.2 579.6 
z
" clip-path="url(#pd2c99b92e6)" style="fill: #c00000"/>
   </g>
   <g id="patch_80">
    <path d="M 115.2 732.24 
L 128.16 732.24 
L 128.16 671.04 
L 115.2 671.04 
z
" clip-path="url(#pd2c99b92e6)" style="fill: #808080"/>
   </g>
   <g id="patch_81">
    <path d="M 82.8 811.08 
L 95.76 811.08 
L 95.76 735.48 
L 82.8 735.48 
z
" clip-path="url(#pd2c99b92e6)" style="fill: #808080"/>
   </g>
   <g id="patch_82">
    <path d="M 450 811.08 
L 462.96 811.08 
L 462.96 735.48 
L 450 735.48 
z
" clip-path="url(#pd2c99b92e6)" style="fill: #808080"/>
   </g>
   <g id="patch_83">
    <path d="M 115.2 909.72 
L 128.16 909.72 
L 128.16 848.52 
L 115.2 848.52 
z
" clip-path="url(#pd2c99b92e6)" style="fill: #548235"/>
   </g>
   <g id="patch_84">
    <path d="M 115.2 1001.16 
L 128.16 1001.16 
L 128.16 939.96 
L 115.2 939.96 
z
" clip-path="url(#pd2c99b92e6)" style="fill: #548235"/>
   </g>
   <g id="patch_85">
    <path d="M 115.2 1092.6 
L 128.16 1092.6 
L 128.16 1031.4 
L 115.2 1031.4 
z
" clip-path="url(#pd2c99b92e6)" style="fill: #7030a0"/>
   </g>
   <g id="patch_86">
    <path d="M 115.2 1184.04 
L 128.16 1184.04 
L 128.16 1122.84 
L 115.2 1122.84 
z
" clip-path="url(#pd2c99b92e6)" style="fill: #bf8f00"/>
   </g>
   <g id="patch_87">
    <path d="M 115.2 1275.48 
L 128.16 1275.48 
L 128.16 1214.28 
L 115.2 1214.28 
z
" clip-path="url(#pd2c99b92e6)" style="fill: #2e8b8b"/>
   </g>
   <g id="patch_88">
    <path d="M 115.2 1366.92 
L 128.16 1366.92 
L 128.16 1305.72 
L 115.2 1305.72 
z
" clip-path="url(#pd2c99b92e6)" style="fill: #2e8b8b"/>
   </g>
   <g id="patch_89">
    <path d="M 115.2 1458.36 
L 128.16 1458.36 
L 128.16 1397.16 
L 115.2 1397.16 
z
" clip-path="url(#pd2c99b92e6)" style="fill: #2e8b8b"/>
   </g>
   <g id="patch_90">
    <path d="M 115.2 1549.8 
L 128.16 1549.8 
L 128.16 1488.6 
L 115.2 1488.6 
z
" clip-path="url(#pd2c99b92e6)" style="fill: #808080"/>
   </g>
   <g id="patch_91">
    <path d="M 86.4 1701 
L 102.24 1701 
L 102.24 1589.4 
L 86.4 1589.4 
z
" clip-path="url(#pd2c99b92e6)" style="fill: #bf8f00"/>
   </g>
   <g id="patch_92">
    <path d="M 64.8 1774.62 
L 86.4 1774.62 
L 86.4 1758.78 
L 64.8 1758.78 
z
" clip-path="url(#pd2c99b92e6)" style="fill: #4472c4; stroke: #333333; stroke-width: 0.6; stroke-linejoin: miter"/>
   </g>
   <g id="text_4">
    <text style="fill: #1a1a1a; font: 9.5px 'DejaVu Sans'; text-anchor: start" x="95.04" y="1769.321406" transform="rotate(-0 95.04 1769.321406)">Data Ingestion</text>
   </g>
   <g id="patch_93">
    <path d="M 248.4 1774.62 
L 270 1774.62 
L 270 1758.78 
L 248.4 1758.78 
z
" clip-path="url(#pd2c99b92e6)" style="fill: #ed7d31; stroke: #333333; stroke-width: 0.6; stroke-linejoin: miter"/>
   </g>
   <g id="text_5">
    <text style="fill: #1a1a1a; font: 9.5px 'DejaVu Sans'; text-anchor: start" x="278.64" y="1769.321406" transform="rotate(-0 278.64 1769.321406)">Missingness Analysis</text>
   </g>
   <g id="patch_94">
    <path d="M 432 1774.62 
L 453.6 1774.62 
L 453.6 1758.78 
L 432 1758.78 
z
" clip-path="url(#pd2c99b92e6)" style="fill: #c00000; stroke: #333333; stroke-width: 0.6; stroke-linejoin: miter"/>
   </g>
   <g id="text_6">
    <text style="fill: #1a1a1a; font: 9.5px 'DejaVu Sans'; text-anchor: start" x="462.24" y="1769.321406" transform="rotate(-0 462.24 1769.321406)">Exclusion / Filtering</text>
   </g>
   <g id="patch_95">
    <path d="M 615.6 1774.62 
L 637.2 1774.62 
L 637.2 1758.78 
L 615.6 1758.78 
z
" clip-path="url(#pd2c99b92e6)" style="fill: #548235; stroke: #333333; stroke-width: 0.6; stroke-linejoin: miter"/>
   </g>
   <g id="text_7">
    <text style="fill: #1a1a1a; font: 9.5px 'DejaVu Sans'; text-anchor: start" x="645.84" y="1769.321406" transform="rotate(-0 645.84 1769.321406)">Engineering / NLP</text>
   </g>
   <g id="patch_96">
    <path d="M 64.8 1798.02 
L 86.4 1798.02 
L 86.4 1782.18 
L 64.8 1782.18 
z
" clip-path="url(#pd2c99b92e6)" style="fill: #7030a0; stroke: #333333; stroke-width: 0.6; stroke-linejoin: miter"/>
   </g>
   <g id="text_8">
    <text style="fill: #1a1a1a; font: 9.5px 'DejaVu Sans'; text-anchor: start" x="95.04" y="1792.721406" transform="rotate(-0 95.04 1792.721406)">Feature Selection</text>
   </g>
   <g id="patch_97">
    <path d="M 248.4 1798.02 
L 270 1798.02 
L 270 1782.18 
L 248.4 1782.18 
z
" clip-path="url(#pd2c99b92e6)" style="fill: #2e8b8b; stroke: #333333; stroke-width: 0.6; stroke-linejoin: miter"/>
   </g>
   <g id="text_9">
    <text style="fill: #1a1a1a; font: 9.5px 'DejaVu Sans'; text-anchor: start" x="278.64" y="1792.721406" transform="rotate(-0 278.64 1792.721406)">Preprocessing</text>
   </g>
   <g id="patch_98">
    <path d="M 432 1798.02 
L 453.6 1798.02 
L 453.6 1782.18 
L 432 1782.18 
z
" clip-path="url(#pd2c99b92e6)" style="fill: #bf8f00; stroke: #333333; stroke-width: 0.6; stroke-linejoin: miter"/>
   </g>
   <g id="text_10">
    <text style="fill: #1a1a1a; font: 9.5px 'DejaVu Sans'; text-anchor: start" x="462.24" y="1792.721406" transform="rotate(-0 462.24 1792.721406)">Quality / Output</text>
   </g>
   <g id="patch_99">
    <path d="M 615.6 1798.02 
L 637.2 1798.02 
L 637.2 1782.18 
L 615.6 1782.18 
z
" clip-path="url(#pd2c99b92e6)" style="fill: #808080; stroke: #333333; stroke-width: 0.6; stroke-linejoin: miter"/>
   </g>
   <g id="text_11">
    <text style="fill: #1a1a1a; font: 9.5px 'DejaVu Sans'; text-anchor: start" x="645.84" y="1792.721406" transform="rotate(-0 645.84 1792.721406)">Split / Branch</text>
   </g>
   <g id="text_12">
    <text style="fill: #1a1a1a; font: 700 11px 'DejaVu Sans'; text-anchor: start" x="141.12" y="144.976344" transform="rotate(-0 141.12 144.976344)">1. Raw Data Ingestion</text>
   </g>
   <g id="text_13">
    <text style="fill: #333333; font: 9px 'DejaVu Sans'; text-anchor: start" x="141.12" y="168.822281" transform="rotate(-0 141.12 168.822281)">Source: Book_11.17.2025_Dr. Rad_Final ID.xlsb  ·  2,450 rows × 55 columns</text>
   </g>
   <g id="text_14">
    <text style="fill: #1a1a1a; font: 700 11px 'DejaVu Sans'; text-anchor: start" x="141.12" y="236.416344" transform="rotate(-0 141.12 236.416344)">2. Column Inventory — 55 Variables</text>
   </g>
   <g id="text_15">
    <text style="fill: #333333; font: 9px 'DejaVu Sans'; text-anchor: start" x="141.12" y="260.387438" transform="rotate(-0 141.12 260.387438)">Demographics · Hormones · Testicular · Pathology (free-text) · Genetics · Outcomes</text>
   </g>
   <g id="text_16">
    <text style="fill: #1a1a1a; font: 700 11px 'DejaVu Sans'; text-anchor: start" x="141.12" y="327.856344" transform="rotate(-0 141.12 327.856344)">3. Missingness Profiling</text>
   </g>
   <g id="text_17">
    <text style="fill: #333333; font: 9px 'DejaVu Sans'; text-anchor: start" x="141.12" y="351.827438" transform="rotate(-0 141.12 351.827438)">9 cols 100% missing  ·  40 cols &gt;50%  ·  FSH 22%  ·  LH 25%  ·  Pathology-LT 49%</text>
   </g>
   <g id="text_18">
    <text style="fill: #1a1a1a; font: 700 11px 'DejaVu Sans'; text-anchor: start" x="141.12" y="419.296344" transform="rotate(-0 141.12 419.296344)">4. Drop 100%-Missing Columns (9 Variables)</text>
   </g>
   <g id="text_19">
    <text style="fill: #333333; font: 9px 'DejaVu Sans'; text-anchor: start" x="141.12" y="443.267438" transform="rotate(-0 141.12 443.267438)">Cancer Type · Torsion · SHBG · TSH · Inhibin B · AMH · Infertility length · …</text>
   </g>
   <g id="text_20">
    <text style="fill: #1a1a1a; font: 700 11px 'DejaVu Sans'; text-anchor: start" x="141.12" y="510.736344" transform="rotate(-0 141.12 510.736344)">5. High-Missingness Flagging (&gt;50%)</text>
   </g>
   <g id="text_21">
    <text style="fill: #333333; font: 9px 'DejaVu Sans'; text-anchor: start" x="141.12" y="534.707438" transform="rotate(-0 141.12 534.707438)">40 columns flagged; retained when clinically meaningful (Karyotype, Y-microdeletion)</text>
   </g>
   <g id="text_22">
    <text style="fill: #1a1a1a; font: 700 11px 'DejaVu Sans'; text-anchor: start" x="141.12" y="602.219313" transform="rotate(-0 141.12 602.219313)">6. Outcome Definition &amp; Cohort Exclusion</text>
   </g>
   <g id="text_23">
    <text style="fill: #333333; font: 9px 'DejaVu Sans'; text-anchor: start" x="141.12" y="626.147438" transform="rotate(-0 141.12 626.147438)">Outcome1 = sperm retrieval (binary)  ·  37 rows missing → excluded  ·  n = 2,413</text>
   </g>
   <g id="text_24">
    <text style="fill: #1a1a1a; font: 700 11px 'DejaVu Sans'; text-anchor: start" x="141.12" y="693.659312" transform="rotate(-0 141.12 693.659312)">7. BRANCH POINT — Two Papers</text>
   </g>
   <g id="text_25">
    <text style="fill: #333333; font: 9px 'DejaVu Sans'; text-anchor: start" x="141.12" y="717.587438" transform="rotate(-0 141.12 717.587438)">Pipeline diverges: Paper 1 uses missingness indicators; Paper B uses kNN imputation</text>
   </g>
   <g id="text_26">
    <text style="fill: #1a1a1a; font: 700 10.5px 'DejaVu Sans'; text-anchor: start" x="108.72" y="762.528328" transform="rotate(-0 108.72 762.528328)">7A. Paper 1 — Missingness Indicators</text>
   </g>
   <g id="text_27">
    <text style="fill: #333333; font: 8.8px 'DejaVu Sans'" transform="translate(108.72 787.413213)">Missingness indicators + SHAP validation</text>
    <text style="fill: #333333; font: 8.8px 'DejaVu Sans'" transform="translate(108.72 797.267288)">(no imputation; preserves signal)</text>
   </g>
   <g id="text_28">
    <text style="fill: #1a1a1a; font: 700 10.5px 'DejaVu Sans'; text-anchor: start" x="475.92" y="762.569344" transform="rotate(-0 475.92 762.569344)">7B. Paper B — kNN Imputation</text>
   </g>
   <g id="text_29">
    <text style="fill: #333333; font: 8.8px 'DejaVu Sans'" transform="translate(475.92 787.413213)">kNN imputation (k = 5), train folds only</text>
    <text style="fill: #333333; font: 8.8px 'DejaVu Sans'" transform="translate(475.92 797.267288)">(no leakage across CV splits)</text>
   </g>
   <g id="text_30">
    <text style="fill: #1a1a1a; font: 700 11px 'DejaVu Sans'; text-anchor: start" x="141.12" y="871.096344" transform="rotate(-0 141.12 871.096344)">8. NLP Pathology Parsing — Free-Text → 22 Features</text>
   </g>
   <g id="text_31">
    <text style="fill: #333333; font: 9px 'DejaVu Sans'; text-anchor: start" x="141.12" y="895.067438" transform="rotate(-0 141.12 895.067438)">Regex: SCO · CSTH · MA stages 1–4 · Hypospermatogenesis · Bilateral (RT/LT)</text>
   </g>
   <g id="text_32">
    <text style="fill: #1a1a1a; font: 700 11px 'DejaVu Sans'; text-anchor: start" x="141.12" y="962.536344" transform="rotate(-0 141.12 962.536344)">9. Feature Engineering — 18 New Features</text>
   </g>
   <g id="text_33">
    <text style="fill: #333333; font: 9px 'DejaVu Sans'; text-anchor: start" x="141.12" y="986.382281" transform="rotate(-0 141.12 986.382281)">16 pathology indicators + is_Primary + Salvage_Count  ·  Encoding: ordinal_detailed_plus_raw</text>
   </g>
   <g id="text_34">
    <text style="fill: #1a1a1a; font: 700 11px 'DejaVu Sans'; text-anchor: start" x="141.12" y="1054.019313" transform="rotate(-0 141.12 1054.019313)">10. Feature Selection</text>
   </g>
   <g id="text_35">
    <text style="fill: #333333; font: 9px 'DejaVu Sans'; text-anchor: start" x="141.12" y="1077.947438" transform="rotate(-0 141.12 1077.947438)">Mann-Whitney U (p&lt;0.05) ∪ Mutual Information ∪ RFE-RF  →  51 features (Paper 1) / 36 features (Paper B)</text>
   </g>
   <g id="text_36">
    <text style="fill: #1a1a1a; font: 700 11px 'DejaVu Sans'; text-anchor: start" x="141.12" y="1145.416344" transform="rotate(-0 141.12 1145.416344)">11. Outlier Handling &amp; Quality Checks (10 Checks)</text>
   </g>
   <g id="text_37">
    <text style="fill: #333333; font: 9px 'DejaVu Sans'; text-anchor: start" x="141.12" y="1169.387438" transform="rotate(-0 141.12 1169.387438)">IQR method · Row integrity · Dtype coercion · MA hierarchy · Bilateral consistency</text>
   </g>
   <g id="text_38">
    <text style="fill: #1a1a1a; font: 700 11px 'DejaVu Sans'; text-anchor: start" x="141.12" y="1236.899313" transform="rotate(-0 141.12 1236.899313)">12. Standardization — RobustScaler</text>
   </g>
   <g id="text_39">
    <text style="fill: #333333; font: 9px 'DejaVu Sans'; text-anchor: start" x="141.12" y="1260.827438" transform="rotate(-0 141.12 1260.827438)">Median/IQR-based scaling  ·  Fitted on training folds only  ·  Robust to outliers</text>
   </g>
   <g id="text_40">
    <text style="fill: #1a1a1a; font: 700 11px 'DejaVu Sans'; text-anchor: start" x="141.12" y="1328.296344" transform="rotate(-0 141.12 1328.296344)">13. Categorical Encoding</text>
   </g>
   <g id="text_41">
    <text style="fill: #333333; font: 9px 'DejaVu Sans'; text-anchor: start" x="141.12" y="1352.267438" transform="rotate(-0 141.12 1352.267438)">One-hot: Race, Habits, Karyotype, AZF  ·  Binary: comorbidities, surgical history</text>
   </g>
   <g id="text_42">
    <text style="fill: #1a1a1a; font: 700 11px 'DejaVu Sans'; text-anchor: start" x="141.12" y="1419.736344" transform="rotate(-0 141.12 1419.736344)">14. Class Imbalance — SMOTE (Training Set Only)</text>
   </g>
   <g id="text_43">
    <text style="fill: #333333; font: 9px 'DejaVu Sans'; text-anchor: start" x="141.12" y="1443.707437" transform="rotate(-0 141.12 1443.707437)">Applied inside CV folds after split  ·  Class ratio ~1.72:1 (failure:success)</text>
   </g>
   <g id="text_44">
    <text style="fill: #1a1a1a; font: 700 11px 'DejaVu Sans'; text-anchor: start" x="141.12" y="1511.219312" transform="rotate(-0 141.12 1511.219312)">15. Train/Test Split — Stratified 80/20</text>
   </g>
   <g id="text_45">
    <text style="fill: #333333; font: 9px 'DejaVu Sans'; text-anchor: start" x="141.12" y="1535.022281" transform="rotate(-0 141.12 1535.022281)">n_train = 1,930  ·  n_test = 483  ·  Stratified on Outcome1  ·  random_state = 42</text>
   </g>
   <g id="text_46">
    <text style="fill: #1a1a1a; font: 700 12.5px 'DejaVu Sans'; text-anchor: start" x="115.2" y="1612.888391" transform="rotate(-0 115.2 1612.888391)">Model-Ready Dataset → CatBoost v2  (AUC 0.8306; 95% CI 0.823–0.845)</text>
   </g>
   <g id="text_47">
    <text style="fill: #222222; font: 10.5px 'DejaVu Sans'; text-anchor: start" x="115.2" y="1643.487328" transform="rotate(-0 115.2 1643.487328)">Top SHAP features:  RT_Volume(Sono) · Sakamoto_RT · Infertile_Family · Seminal_pH · LT_Volume · Age</text>
   </g>
   <g id="text_48">
    <text style="fill: #444444; font: italic 9.5px 'DejaVu Sans'; text-anchor: start" x="115.2" y="1672.241297" transform="rotate(-0 115.2 1672.241297)">† Partner_Age excluded — biologically irrelevant to male sperm retrieval</text>
   </g>
   <g id="text_49">
    <text style="fill: #555555; font: italic 9px 'DejaVu Sans'; text-anchor: start" x="115.2" y="1690.091437" transform="rotate(-0 115.2 1690.091437)">   (micro-TESE is a purely male-tissue surgical procedure; female partner age has no causal role)</text>
   </g>
  </g>
 </g>
 <defs>
  <clipPath id="pd2c99b92e6">
   <rect x="0" y="0" width="864" height="1826.64"/>
  </clipPath>
 </defs>
</svg>
